<svg xmlns="http://www.w3.org/2000/svg" width="650" height="910" viewBox="0 0 650 910" version="1.1"><path d="M 326.185 25.735 C 323.725 26.624, 322.983 30.832, 324.011 38.077 C 325.232 46.690, 327.947 52.136, 336.258 62.647 C 346.009 74.979, 346.478 76.489, 346.619 96 C 346.685 105.075, 347.067 117.921, 347.468 124.547 C 348.063 134.390, 347.912 137.274, 346.643 140.311 C 344.701 144.960, 342.472 145.916, 339.801 143.246 C 336.941 140.386, 337.166 133.747, 340.538 121.500 C 344.453 107.276, 344.480 96.545, 340.618 88.652 C 334.854 76.871, 325.201 74.360, 312.653 81.378 C 305.065 85.621, 304.298 85.465, 301.011 79.022 C 297.072 71.301, 285.060 62.824, 277.788 62.633 C 272.557 62.496, 269.861 65.395, 269.243 71.819 C 268.569 78.839, 271.735 85.155, 282.339 97.939 C 291.550 109.043, 293.305 112.563, 297.580 128.500 C 300.189 138.223, 300.795 149.805, 298.800 151.800 C 296.639 153.961, 294.215 153.069, 290.513 148.750 C 285.421 142.809, 281.805 134.613, 277.606 119.500 C 275.620 112.350, 271.994 102.450, 269.550 97.500 C 264.214 86.697, 249.825 67.317, 245.136 64.619 C 241.789 62.692, 241.729 62.694, 232.499 64.948 C 222.069 67.496, 218.019 67.243, 208.999 63.479 C 201.345 60.286, 196.770 59.591, 192.558 60.981 C 188.600 62.287, 187 64.483, 187 68.606 C 187 72.334, 193.426 78.340, 203.840 84.347 C 214.390 90.432, 224.363 99.844, 234.069 112.874 C 245.332 127.994, 250 138.333, 250 148.159 C 250 152.676, 249.830 153, 247.460 153 C 239.883 153, 231.944 145.044, 220.634 126.115 C 216.114 118.552, 209.773 109.762, 204.798 104.167 C 200.234 99.034, 194.337 92.059, 191.693 88.667 C 180.901 74.823, 176.641 71.695, 172.381 74.486 C 169.289 76.512, 168.654 79.468, 169.219 89.218 L 169.687 97.307 167.522 90.903 C 164.936 83.254, 163.437 80.255, 160.701 77.250 C 153.651 69.510, 119 82.987, 119 93.470 C 119 99.386, 122.933 104.503, 135.632 115.111 C 150.656 127.659, 164.273 147.597, 164.273 157.047 C 164.273 165.481, 157.578 169.375, 150.549 165.030 C 144.569 161.335, 136.134 151.161, 124.029 133.043 C 117.542 123.334, 110.666 113.728, 108.749 111.695 C 104.408 107.092, 101.140 106.911, 93.221 110.836 C 90.075 112.395, 83.777 115.150, 79.227 116.957 C 66.869 121.866, 64.257 126.676, 69.638 134.610 C 74.223 141.372, 79.471 145.143, 96 153.558 C 104.520 157.895, 109.120 160.990, 113.750 165.499 C 120.182 171.763, 121.073 173.784, 118.528 176.329 C 116.510 178.347, 112.035 177.231, 99.037 171.468 C 81.260 163.587, 72.601 161.225, 48.126 157.583 C 41.077 156.534, 37.145 160.100, 33.388 170.950 C 32.224 174.310, 30.192 177.570, 28.089 179.450 C 17.015 189.353, 16.999 189.375, 17.010 195.132 C 17.021 201.570, 20.006 208.536, 26.002 216.121 C 28.289 219.014, 31.200 223.433, 32.472 225.941 C 35.220 231.360, 37.313 233.397, 42.254 235.462 C 50.628 238.960, 64.592 236.079, 82.250 227.210 C 82.663 227.003, 83 227.462, 83 228.230 C 83 230.126, 87.861 234.631, 91.315 235.936 C 99.222 238.924, 106.353 236.337, 121.500 224.986 C 128.100 220.040, 137.164 214.197, 141.642 212.001 C 158.323 203.824, 180.503 200.093, 201.562 201.922 C 226.619 204.097, 240.736 208.068, 282.500 224.685 C 337.923 246.737, 351.680 256.087, 370.508 284.500 C 380.722 299.915, 396 328.590, 396 332.346 C 396 333.141, 393.157 333.618, 387.283 333.808 C 377.455 334.125, 371.385 335.274, 365.516 337.931 C 351.318 344.358, 343.951 356.162, 342.380 374.996 C 341.596 384.398, 342.079 384.888, 350.238 382.965 C 358.214 381.085, 362.833 378.556, 370.332 371.963 C 379.243 364.130, 383.934 361.813, 392.065 361.229 C 399.213 360.716, 404.050 362.356, 405.970 365.945 C 410.046 373.560, 403.135 379.026, 378.673 387.536 C 370.473 390.389, 365.865 393.529, 363.023 398.202 L 361.328 400.989 358.914 397.277 C 353.682 389.231, 344.034 385.563, 328 385.525 C 318.773 385.503, 316.198 385.914, 306.760 388.914 C 296.604 392.143, 295.919 392.236, 294.144 390.630 C 292.944 389.545, 292.026 386.880, 291.599 383.245 C 290.734 375.890, 287.538 370.561, 279.765 363.518 C 265.474 350.569, 249.908 343.857, 229.835 341.989 C 215.663 340.670, 209.434 341.537, 197.377 346.507 C 180.624 353.411, 169.827 359.837, 152.370 373.295 C 118.426 399.462, 115.632 402.269, 110.108 415.750 L 107.137 423 112.469 423 C 115.717 423, 126.339 420.783, 139.650 417.326 L 161.500 411.653 186.173 411.250 C 203.488 410.968, 211.484 411.189, 212.984 411.991 C 215.742 413.467, 215.296 416.709, 212 419.153 C 206.648 423.122, 197.484 424.037, 153 425.048 C 101.071 426.228, 96.661 426.860, 90.658 433.995 C 86.768 438.618, 86.012 442.973, 86.006 460.782 C 86 477.708, 87.184 484, 90.376 484 C 92.729 484, 95.702 479.420, 97.037 473.738 C 99.516 463.190, 103.934 457.072, 112.018 452.991 C 122.172 447.865, 134.058 445.002, 149.821 443.886 C 165.833 442.752, 167 443.065, 167 448.488 C 167 452.926, 163.888 456.510, 158.239 458.577 C 134.496 467.266, 111.063 478.114, 107.298 482.161 C 99.849 490.165, 99.194 506.642, 105.462 528.274 C 108.272 537.967, 113.818 551, 115.134 551 C 115.610 551, 116 549.520, 116 547.710 C 116 539.815, 121.426 525.715, 126.163 521.299 C 127.462 520.088, 130.769 518.071, 133.512 516.816 C 138.210 514.667, 140.096 514.503, 166 514.007 C 191.736 513.514, 193.761 513.341, 197.568 511.313 C 207.097 506.235, 214.335 493.691, 223.994 465.519 C 227.313 455.836, 231.163 446.117, 232.550 443.921 C 235.673 438.973, 240.627 435.730, 243.066 437.035 C 248.037 439.696, 248.440 456.801, 244 476.661 C 242.350 484.041, 241 492.086, 241 494.539 L 241 499 247.250 499.201 C 262.275 499.683, 266.138 498.195, 274.175 488.834 C 284.136 477.234, 289.489 471.774, 297 465.557 C 307.862 456.566, 312.726 453.481, 325.515 447.472 L 336.932 442.108 348.203 452.304 C 370.681 472.640, 389.036 492.559, 412.296 521.861 C 420.433 532.112, 430.783 544.987, 435.296 550.470 C 439.808 555.954, 445.853 563.447, 448.730 567.121 L 453.959 573.802 447.403 574.943 C 428.804 578.182, 423.941 583.015, 421.687 600.500 C 421.474 602.150, 421.232 599.871, 421.150 595.436 C 421.067 591.001, 420.306 582.226, 419.458 575.936 C 418.610 569.646, 417.510 558.276, 417.012 550.669 C 415.933 534.183, 414.222 528.280, 409.258 523.922 C 401.578 517.179, 393.853 516.019, 375.500 518.852 C 368.350 519.956, 358.468 521.126, 353.541 521.451 C 343.681 522.103, 340.404 523.540, 339.369 527.667 C 338.154 532.507, 339.781 533.442, 350.605 534.119 C 368.038 535.211, 374.887 540.131, 376.563 552.766 C 377.414 559.182, 375.582 567.080, 372.460 570.448 C 370.723 572.323, 369.088 572.999, 366.298 572.996 C 360.151 572.990, 356.293 569.895, 352.872 562.226 C 346.185 547.235, 344.838 544.779, 341.038 540.657 C 331.866 530.706, 322.425 528.555, 300.759 531.480 C 288.133 533.185, 287.921 533.180, 277.259 530.986 C 263.691 528.193, 255.267 528.086, 250.806 530.651 C 248.980 531.701, 245.313 535.820, 242.614 539.852 C 239.927 543.867, 232.644 552.180, 226.430 558.326 C 215.532 569.103, 212.992 572.932, 214.367 576.513 C 215.437 579.303, 220.149 580.208, 231 579.708 C 239.347 579.324, 243.271 578.595, 250.133 576.152 C 260.676 572.400, 268.906 571.492, 279.749 572.884 C 289.219 574.100, 296.643 576.967, 300.313 580.823 C 301.715 582.295, 303.854 586.166, 305.068 589.425 C 307.769 596.678, 310.271 599.102, 317.946 601.900 C 330.483 606.471, 342.261 618.653, 338.686 623.351 C 336.904 625.693, 332.504 627, 326.403 627 C 319.811 627, 315.829 625.446, 308.773 620.119 C 299.938 613.448, 293.163 610.898, 280.631 609.526 C 272.090 608.591, 267.755 607.547, 262 605.040 C 244.399 597.374, 243.071 596.955, 233.795 596.151 C 228.683 595.708, 219.791 595.605, 214.035 595.922 L 203.570 596.500 201.341 600 C 196.484 607.629, 194.457 609.379, 186.040 613.214 C 171.438 619.865, 168.882 621.359, 163.896 626.158 C 161.166 628.785, 158.020 633.160, 156.677 636.195 C 155.369 639.154, 153.106 642.356, 151.649 643.310 C 145.319 647.458, 150.921 652.312, 161.985 652.268 C 169.771 652.237, 174.767 650.453, 189.061 642.602 C 194.802 639.449, 202.005 636.021, 205.068 634.985 C 213.017 632.296, 230.896 630.674, 246.809 631.199 C 261.360 631.679, 267.559 633.358, 272.738 638.223 C 275.206 640.542, 275.732 644.417, 273.750 645.676 C 273.063 646.112, 260.350 646.529, 245.500 646.601 C 214.794 646.751, 209.512 647.395, 181.127 654.440 C 171.021 656.948, 162.555 659, 162.313 659 C 162.071 659, 158.414 662.294, 154.187 666.320 C 149.085 671.179, 143.723 675.085, 138.241 677.936 C 125.369 684.632, 121.586 690.676, 128.468 693.551 C 137.580 697.358, 143.920 695.237, 180.309 676.202 C 184.769 673.870, 186.038 673.698, 197.809 673.835 C 207.171 673.945, 212.335 674.510, 217.497 675.992 C 226.058 678.449, 237.981 678.620, 248.185 676.431 C 257.376 674.459, 270.723 674.141, 273.750 675.821 C 278.027 678.196, 276.065 683.783, 270.095 686.231 C 266.845 687.564, 248.796 687.479, 239.500 686.088 C 235.650 685.511, 227.775 685.045, 222 685.052 C 210.685 685.066, 210.045 685.230, 191 692.967 C 177.272 698.544, 164.410 701.553, 148.946 702.804 C 138.494 703.650, 134.869 704.408, 127.303 707.330 C 108.382 714.637, 106.407 717.193, 107.375 733.119 C 108.111 745.241, 107.546 747.547, 102.458 753.178 C 96.369 759.918, 98.638 764.132, 107.576 762.681 C 114.155 761.614, 120.084 757.584, 133.081 745.349 C 140.253 738.597, 149.131 731.102, 152.811 728.692 C 164.524 721.020, 165.496 720.811, 193.824 719.845 C 219.900 718.956, 224.558 719.314, 226.418 722.353 C 227.297 723.789, 226.981 724.573, 224.734 726.527 C 220.418 730.279, 212.900 732.007, 194.482 733.479 C 176.066 734.951, 165.712 737.155, 151.564 742.617 C 139.773 747.168, 133.114 751.074, 126.144 757.527 C 116.930 766.057, 112.799 775.633, 111.486 791.500 C 110.758 800.294, 109.100 804.814, 103.674 812.796 C 101.693 815.709, 99.769 819.714, 99.397 821.698 C 98.671 825.567, 99.792 830.102, 101.626 830.710 C 102.245 830.916, 106.403 826.814, 110.866 821.596 C 120.036 810.875, 124.690 807.303, 134.598 803.381 C 140.064 801.217, 142.900 799.235, 148.226 793.856 C 162.153 779.789, 174.167 772, 181.936 772 C 186.417 772, 188 773.790, 188 778.858 C 188 785.608, 178.950 791.376, 152.500 801.488 C 129.060 810.448, 123.734 813.680, 119.845 821.303 C 117.164 826.559, 116.356 835.628, 118.034 841.623 C 118.782 844.292, 121.426 848.890, 124.203 852.351 C 126.877 855.682, 129.338 859.499, 129.673 860.832 C 130.007 862.166, 129.995 867.286, 129.646 872.210 C 129.197 878.537, 129.333 881.056, 130.112 880.796 C 131.532 880.323, 132.099 865.655, 130.877 861 C 130.372 859.075, 127.725 854.575, 124.995 851 C 118.789 842.871, 117.093 836.630, 118.899 828.562 C 121.389 817.435, 126.875 812.884, 147.268 805.033 C 178.722 792.922, 185.155 789.409, 188.402 782.564 C 191.438 776.167, 188.295 770, 181.999 770 C 178.376 770, 166.441 775.963, 160.292 780.845 C 157.428 783.119, 152.354 787.835, 149.016 791.325 C 143.168 797.442, 141.402 798.586, 128.704 804.493 C 122.855 807.213, 114.383 814.764, 106.256 824.500 C 102.792 828.650, 101.902 829.245, 101.020 828 C 99.425 825.748, 100.752 820.055, 104.051 815 C 110.077 805.765, 112.080 800.403, 113.068 790.852 C 113.592 785.782, 114.508 779.803, 115.102 777.567 C 121.211 754.572, 152.232 737.837, 193.935 735.037 C 215.550 733.585, 223.855 731.204, 227.685 725.358 C 229.360 722.801, 229.336 722.686, 226.644 720.370 C 224.073 718.158, 223.107 718.005, 212.194 718.069 C 205.762 718.107, 192.850 718.465, 183.500 718.865 C 166.914 719.575, 166.342 719.673, 160 722.889 C 151.181 727.361, 144.473 732.535, 131.693 744.720 C 118.445 757.352, 112.553 760.978, 105.250 760.991 C 98.870 761.002, 98.499 759.684, 103.356 754.253 C 108.759 748.210, 109.058 747.087, 108.897 733.429 C 108.724 718.627, 109.343 717.237, 118.093 712.797 C 128.312 707.610, 138.683 704.884, 151.500 704.014 C 167.260 702.945, 179.065 699.749, 201.125 690.580 C 212.510 685.849, 218.319 685.369, 238.546 687.490 C 263.875 690.146, 273.928 688.842, 276.805 682.528 C 278.643 678.495, 278.273 677.137, 274.750 674.989 C 270.463 672.375, 261.767 672.379, 247.500 675 C 233.787 677.519, 229.202 677.509, 219.932 674.939 C 210.421 672.302, 190.014 671.191, 184.406 673.006 C 182.258 673.701, 175.751 676.915, 169.947 680.149 C 155.124 688.408, 145.690 692.175, 138.360 692.763 C 129.963 693.437, 127 692.604, 127 689.570 C 127 686.491, 131.302 682.877, 140.404 678.309 C 144.891 676.058, 150.274 672.106, 155.046 667.559 L 162.592 660.368 180.365 656.089 C 210.710 648.782, 210.800 648.771, 242.647 648.463 C 261.222 648.283, 272.531 647.786, 273.829 647.092 C 278.740 644.463, 277.087 638.974, 270.046 634.529 C 263.360 630.308, 258.775 629.737, 235.776 630.257 C 207.939 630.887, 208.608 630.707, 181.332 644.919 C 173.042 649.238, 169.975 650.313, 164.727 650.734 C 157.821 651.288, 151.537 649.841, 150.634 647.488 C 150.323 646.678, 151.304 645.097, 152.931 643.787 C 154.493 642.529, 157.044 638.865, 158.599 635.645 C 160.155 632.425, 163.244 628.205, 165.464 626.267 C 169.132 623.065, 188.071 613.049, 190.522 613.014 C 192.564 612.986, 199.106 606.712, 201.032 602.937 C 204.047 597.028, 205.266 596.716, 223.397 597.217 C 241.008 597.702, 243.764 598.366, 261.809 606.461 C 268.802 609.598, 271.806 610.336, 280.760 611.113 C 292.673 612.148, 298.921 614.435, 307.474 620.893 C 314.070 625.872, 317.911 627.802, 322.775 628.580 C 327.609 629.353, 336.752 627.534, 339.209 625.311 C 345.198 619.891, 334.619 607.282, 318.589 600.732 C 310.072 597.252, 307.939 595.031, 305.884 587.500 C 304.437 582.198, 298.583 576.754, 291.305 573.942 C 286.829 572.212, 282.753 571.596, 273.500 571.249 C 261.938 570.816, 261.099 570.927, 250.500 574.301 C 233.956 579.568, 218.295 580.289, 215.943 575.893 C 214.364 572.944, 216.774 569.538, 228.479 558.170 C 234.376 552.443, 241.079 544.777, 243.521 540.967 C 245.944 537.187, 249.109 533.319, 250.555 532.372 C 254.626 529.705, 262.433 529.545, 273.944 531.892 C 286.153 534.382, 290.790 534.474, 305.591 532.518 C 330.267 529.258, 341.283 536.037, 349.994 559.846 C 355.758 575.600, 369.974 579.948, 375.874 567.761 C 378.477 562.383, 378.762 551.761, 376.452 546.232 C 372.872 537.662, 366.704 534.186, 352.575 532.775 C 339.677 531.487, 339.715 531.499, 340.538 528.755 C 341.859 524.350, 343.494 523.675, 354.713 522.903 C 360.646 522.495, 369.496 521.449, 374.381 520.580 C 390.712 517.674, 400.882 518.805, 407.504 524.264 C 412.725 528.568, 414.018 532.436, 415.068 546.902 C 415.572 553.831, 416.733 565.350, 417.650 572.500 C 419.791 589.201, 419.965 606.893, 418.053 613.500 C 416.939 617.347, 415.267 619.774, 410.803 624.027 C 407.611 627.066, 405 630.020, 405 630.590 C 405 631.159, 403.763 632.772, 402.250 634.172 C 399.575 636.650, 391.185 639, 385.015 639 C 379.660 639, 372.259 635.980, 367.630 631.906 C 362.217 627.141, 359.401 622.637, 354.142 610.332 C 352.050 605.437, 348.707 598.883, 346.713 595.766 C 341.904 588.248, 329.964 575.783, 322.504 570.492 C 316.057 565.919, 302.866 558.971, 300.775 559.046 C 300.074 559.071, 302.224 560.353, 305.553 561.895 C 320.625 568.874, 335.359 581.163, 343.999 593.961 C 346.398 597.515, 350.533 605.374, 353.186 611.425 C 359.496 625.812, 364.708 632.511, 372.889 636.746 C 379.553 640.196, 385.509 640.879, 393.250 639.081 C 395.313 638.602, 397 638.349, 397 638.518 C 397 638.830, 378.974 651.972, 373.500 655.651 C 370.821 657.452, 369.569 657.591, 361.797 656.953 C 347.274 655.761, 340.042 653.405, 320.280 643.429 C 306.514 636.479, 299.744 633.659, 293.211 632.151 C 288.420 631.045, 283.600 629.817, 282.500 629.423 C 281.127 628.930, 280.813 629.032, 281.500 629.747 C 282.050 630.319, 286.549 631.771, 291.498 632.973 C 302.271 635.589, 306.940 637.530, 320.896 645.197 C 333.479 652.109, 346.179 656.406, 358.399 657.886 C 363.293 658.479, 367.433 659.099, 367.598 659.265 C 367.764 659.431, 363.422 662.409, 357.950 665.883 L 348 672.200 343.250 671.143 C 340.638 670.562, 333.775 670.130, 328 670.183 C 318.767 670.268, 315.871 669.828, 304 666.537 C 290.908 662.907, 289.873 662.778, 269.750 662.273 C 258.176 661.982, 249 662.138, 249 662.626 C 249 663.107, 257.662 663.501, 268.250 663.502 L 287.500 663.504 304.180 667.789 C 319.275 671.667, 321.839 672.050, 331.180 671.828 C 336.856 671.693, 342.576 671.952, 343.892 672.404 C 346.183 673.190, 346.077 673.354, 341.392 676.258 C 338.701 677.926, 329.075 684.127, 320 690.039 C 310.925 695.951, 301.407 701.804, 298.849 703.045 C 294.391 705.209, 294.018 705.236, 289.849 703.715 C 265.922 694.982, 261.178 694.082, 238.822 694.035 C 218.586 693.993, 209.600 695.151, 196.503 699.488 C 191.002 701.311, 184.475 703.111, 182 703.488 C 176.571 704.316, 158.901 708.766, 158.180 709.487 C 157.219 710.448, 160.625 710.004, 165.642 708.514 C 168.395 707.696, 175.075 706.116, 180.487 705.003 C 185.898 703.889, 194.224 701.640, 198.989 700.004 C 210.599 696.017, 224.427 694.604, 245 695.301 C 262.891 695.907, 269.412 697.189, 284.549 703.077 L 292.942 706.342 282.221 712.288 C 276.324 715.559, 268.332 720.423, 264.460 723.097 C 258.081 727.503, 242.523 742.525, 234.152 752.361 L 230.866 756.223 228.624 754.117 C 223.377 749.187, 208.913 749.606, 192.601 755.162 C 187.707 756.829, 179.746 758.787, 174.910 759.514 C 170.074 760.240, 165.304 761.343, 164.309 761.965 C 162.629 763.015, 162.642 763.059, 164.500 762.578 C 165.600 762.294, 169.875 761.564, 174 760.956 C 178.125 760.348, 186.450 758.254, 192.500 756.304 C 209.792 750.729, 226.111 750.542, 228.926 755.887 C 229.556 757.083, 227.866 760.052, 222.388 767.372 C 218.324 772.801, 215 777.714, 215 778.288 C 215 779.626, 214.719 779.956, 222.045 770 C 235.740 751.386, 255.125 731.056, 266.577 723.296 C 269.835 721.088, 279.700 715.340, 288.500 710.522 C 297.300 705.703, 312.600 696.504, 322.500 690.078 C 332.400 683.653, 346.175 674.872, 353.111 670.565 C 368.646 660.920, 389.067 646.731, 398.825 638.803 C 409.530 630.105, 406.134 634.612, 390.342 650.059 C 374.131 665.917, 367.900 670.312, 343 683.451 C 308.612 701.597, 278.770 720.709, 258.195 737.763 C 252.713 742.308, 240.874 753.558, 231.888 762.763 C 222.902 771.968, 215.233 779.398, 214.847 779.274 C 214.073 779.025, 203.621 795.955, 204.195 796.528 C 204.390 796.724, 207.239 793.223, 210.525 788.749 C 213.811 784.274, 223.312 773.613, 231.638 765.057 L 246.776 749.500 245.872 755.261 C 245.375 758.430, 243.804 764.505, 242.380 768.761 C 240.090 775.605, 239.706 778.814, 239.058 796.500 C 238.440 813.384, 237.977 817.505, 236.085 822.951 C 233.187 831.290, 231.586 834.400, 227.047 840.500 C 222.933 846.029, 220.305 850.548, 221.706 849.681 C 224.351 848.047, 234.382 831.497, 236.676 824.985 C 239.046 818.256, 239.385 815.480, 240.032 797.500 C 240.699 778.951, 240.978 776.784, 243.876 767.627 C 245.594 762.197, 247.006 756.572, 247.014 755.127 C 247.042 749.696, 248.534 747.623, 258.315 739.430 C 268.005 731.312, 288.075 716.676, 291.117 715.509 C 292.384 715.022, 292.604 717.146, 292.641 730.220 C 292.689 746.993, 293.320 749.789, 301.449 769.246 C 308.117 785.206, 309.729 800.309, 306.144 813.237 C 305.123 816.919, 301.798 824.109, 298.755 829.215 C 293.098 838.709, 289.637 845.970, 290.403 846.737 C 290.640 846.973, 291.765 845.060, 292.904 842.485 C 294.042 839.911, 296.627 835.084, 298.646 831.759 C 307.617 816.992, 309.484 810.229, 308.766 795.094 C 308.235 783.890, 307.079 779.770, 298.356 758 L 294.550 748.500 294.196 730.883 L 293.842 713.266 309.881 703.633 C 318.703 698.335, 326.110 694, 326.340 694 C 326.571 694, 326.950 696.626, 327.182 699.835 C 328.032 711.585, 334.828 721.149, 355.947 740.311 C 370.399 753.424, 378.075 762.602, 382.867 772.500 C 387.425 781.914, 388.500 787.968, 388.500 804.215 C 388.500 812.308, 388.806 818.158, 389.180 817.215 C 390.506 813.870, 390.009 792.961, 388.422 785.274 C 385.582 771.529, 377.040 758.198, 362.650 745.057 C 335.834 720.568, 328.691 710.939, 328.567 699.107 L 328.500 692.678 344.500 684.295 C 353.300 679.684, 362.178 674.806, 364.229 673.456 C 380.742 662.580, 429.667 687.181, 449.989 716.578 C 455.754 724.918, 466.255 746.261, 468.555 754.316 C 469.971 759.273, 470.019 759.323, 469.641 755.457 C 469.126 750.183, 458.272 726.793, 452.100 717.656 C 444.862 706.939, 438.875 700.773, 427.123 691.930 C 410.900 679.722, 391.649 670.978, 377.666 669.466 L 371.833 668.835 376.166 665.242 C 380.484 661.662, 405.021 637.304, 408.140 633.500 C 409.042 632.400, 411.674 630.375, 413.987 629 C 418.653 626.227, 421.890 621.305, 424.509 613 C 427.400 603.836, 430.994 598.086, 435.450 595.498 C 440.789 592.397, 450.897 590.652, 459 591.431 C 462.986 591.815, 468.788 591.502, 474 590.623 C 488.206 588.228, 490.730 588.048, 513 587.851 C 537.072 587.638, 539.020 588.061, 542.906 594.347 C 546.264 599.782, 549.284 613.485, 548.720 620.727 C 548.161 627.884, 544.786 635.464, 540.903 638.279 C 539.376 639.386, 535.849 640.385, 532.341 640.703 C 527.092 641.179, 524.943 640.734, 514.438 637 C 488.237 627.687, 478.914 625.838, 468.777 627.942 C 458.305 630.117, 455.246 635.560, 460.258 643.102 C 466.190 652.029, 482.123 654.129, 502.332 648.648 C 509.524 646.698, 532.603 646.182, 535.814 647.900 C 537.003 648.537, 538.214 650.282, 538.504 651.779 C 540.260 660.833, 541.413 664.303, 545.002 671.331 C 547.201 675.638, 549 680.434, 549 681.988 C 549 683.542, 547.029 689.519, 544.619 695.270 C 542.210 701.020, 539.023 709.481, 537.537 714.072 C 534.058 724.818, 532.869 727.029, 528.516 730.852 C 521.024 737.430, 513.563 733.310, 503.500 717.037 C 479.159 677.675, 474.139 672.974, 457.884 674.315 C 444.737 675.400, 440.138 679.431, 443.819 686.645 C 448.290 695.410, 456.432 701.762, 474.946 710.933 C 488.974 717.881, 494.587 721.713, 501.388 728.984 C 508.280 736.352, 510.429 741.724, 510.394 751.500 C 510.361 760.961, 507.990 769.346, 503.509 775.847 C 501.155 779.263, 498.155 781.627, 491.210 785.538 C 486.158 788.383, 478.757 793.388, 474.762 796.660 C 470.768 799.933, 466.097 803.586, 464.383 804.779 C 460.259 807.647, 433.563 817, 429.499 817 C 425.199 817, 423.126 814.420, 422.034 807.707 C 421.489 804.361, 419.406 799.017, 416.814 794.319 C 412.770 786.989, 412.505 786.031, 412.574 779 C 412.622 774.221, 413.509 768.597, 415.019 763.500 C 418.182 752.827, 418.398 740.025, 415.500 735.105 C 412.449 729.924, 408.574 727.500, 403.345 727.500 C 399.532 727.500, 398.393 727.995, 395.967 730.711 C 392.210 734.915, 390.667 740.946, 391.248 749.154 C 391.650 754.833, 392.479 757.180, 396.900 765.154 C 407.635 784.521, 409.445 788.930, 409.843 796.678 C 410.124 802.148, 409.681 805.477, 407.982 810.678 C 402.557 827.281, 399.254 832.809, 392.790 836.107 C 389.229 837.924, 361.312 848.348, 336.500 857.127 C 328.482 859.964, 321 860.870, 321 859.004 C 321 858.456, 323.999 854.744, 327.665 850.754 C 331.447 846.637, 335.534 840.906, 337.116 837.500 C 343.103 824.612, 346.527 794.918, 344.110 776.852 C 342.494 764.776, 340.572 758.995, 336.674 754.486 C 332.321 749.450, 327.588 749.104, 323.013 753.487 C 320.395 755.996, 320 757.077, 320 761.745 C 320 766.380, 320.838 768.717, 326.111 778.793 L 332.222 790.470 331.767 798.985 C 331.227 809.066, 329.075 814.451, 320.645 826.804 C 311.572 840.101, 310.123 843.646, 308.404 856.752 C 305.721 877.214, 301.897 881.575, 287.500 880.594 C 282.069 880.223, 277.252 880.550, 272.500 881.611 C 258.309 884.779, 257.346 884.686, 249.250 879.372 L 242 874.613 242 866.988 C 242 857.044, 244.043 850.472, 249.260 843.641 C 251.592 840.586, 256.941 833.610, 261.147 828.137 C 273.760 811.726, 279.951 799.685, 282.089 787.408 C 283.531 779.128, 281.927 771.057, 277.966 766.667 C 275.225 763.628, 274.998 763.561, 272.377 765 C 266.084 768.456, 258.054 788.713, 252.447 815.273 C 250.277 825.554, 247.844 833.911, 245.459 839.273 C 243.447 843.798, 240.116 852.165, 238.057 857.868 C 235.998 863.570, 233.137 869.708, 231.701 871.508 C 228.406 875.637, 222.332 877.763, 210.231 879.024 C 205.133 879.555, 199.333 880.670, 197.342 881.502 C 192.832 883.386, 182.914 890.081, 177.109 895.159 C 169.545 901.776, 163.632 899.776, 160.914 889.680 C 160.313 887.447, 158.331 884.131, 156.510 882.310 C 153.786 879.586, 152.430 878.997, 148.850 878.985 C 140.473 878.955, 140.396 877.125, 148.391 868.123 C 150.758 865.458, 154.115 860.795, 155.851 857.761 C 157.587 854.727, 161.435 849.523, 164.404 846.196 C 172.455 837.174, 176.202 825.393, 172.591 820.456 C 170.664 817.820, 164.406 818.082, 159.182 821.018 C 151.710 825.218, 147.313 833.211, 141.333 853.467 C 139.379 860.085, 136.470 868.153, 134.869 871.395 C 133.268 874.638, 132.168 877.501, 132.425 877.758 C 133.569 878.902, 137.370 870.459, 141.095 858.500 C 146.610 840.795, 149.580 833.412, 153.230 828.329 C 158.468 821.035, 169.527 817.379, 172.056 822.105 C 174.500 826.671, 170.298 837.609, 162.935 845.846 C 160.156 848.956, 156.506 853.896, 154.825 856.824 C 153.144 859.752, 149.558 864.674, 146.856 867.762 C 142.058 873.245, 140.229 876.943, 141.387 878.818 C 141.704 879.330, 144.450 879.956, 147.489 880.208 C 154.399 880.781, 157.027 883.066, 159.931 891.031 C 162.201 897.257, 165.789 901, 169.486 901 C 170.705 901, 173.299 899.762, 175.250 898.250 C 194.855 883.050, 196.456 882.253, 211.001 880.457 C 229.206 878.208, 233.724 874.991, 238.322 860.999 C 239.678 856.875, 242.453 849.900, 244.489 845.500 C 249.834 833.952, 250.454 831.964, 254.017 814.918 C 259.110 790.556, 267.412 769.136, 272.695 766.729 C 279.359 763.693, 283.394 779.575, 279.388 793.067 C 275.874 804.897, 268.295 817.487, 254.147 834.992 C 243.027 848.752, 241.095 853.067, 240.314 865.889 L 239.702 875.936 242.324 876.933 C 243.767 877.482, 247.259 879.521, 250.086 881.465 C 255.974 885.516, 260.694 885.998, 270 883.500 C 273.226 882.634, 279.966 882.019, 286.300 882.012 C 298.114 881.999, 301.478 880.972, 304.421 876.481 C 307.282 872.113, 308.786 866.681, 309.993 856.348 C 311.350 844.731, 313.231 840.201, 322.307 826.699 C 331.126 813.578, 333.383 807.658, 333.436 797.500 C 333.477 789.581, 333.415 789.381, 327.239 777.727 C 320.813 765.601, 319.753 761.209, 322.163 756.684 C 326.959 747.680, 336.810 752.135, 340.400 764.930 C 345.964 784.760, 343.129 823.065, 334.904 839.187 C 333.853 841.248, 330.361 845.762, 327.145 849.217 C 320.318 856.552, 318.361 859.761, 319.824 861.224 C 321.584 862.984, 333.119 860.263, 347.708 854.647 C 355.294 851.728, 368.469 846.900, 376.987 843.919 C 385.981 840.772, 394.157 837.242, 396.487 835.499 C 401.126 832.030, 404.439 825.837, 409.058 812 C 411.740 803.964, 412.141 801.548, 411.659 796.325 C 410.963 788.785, 409.804 785.926, 400.954 769.931 C 392.895 755.368, 391.212 749.115, 393.013 740.438 C 393.640 737.416, 395.269 733.646, 396.662 731.990 C 401.526 726.209, 411.324 728.744, 414.621 736.636 C 416.804 741.861, 416.332 753.314, 413.512 763.507 C 412.019 768.908, 411.020 775.175, 411.012 779.198 C 411.001 785.116, 411.510 786.919, 415.382 794.698 C 417.792 799.539, 420.379 806.159, 421.132 809.409 C 422.126 813.701, 423.233 815.860, 425.178 817.300 C 427.734 819.192, 428.120 819.212, 433.678 817.726 C 445.881 814.464, 460.694 808.805, 465.500 805.569 C 468.250 803.718, 473.066 800.004, 476.202 797.317 C 479.338 794.629, 485.677 790.330, 490.287 787.763 C 494.898 785.195, 500.149 781.611, 501.957 779.797 C 511.364 770.362, 514.896 749.596, 509.115 737.714 C 503.835 726.862, 492.249 717.399, 473 708.218 C 467.225 705.463, 459.771 701.200, 456.437 698.744 C 447.146 691.902, 441.596 682.216, 445.250 679.220 C 449.074 676.085, 464.627 674.692, 470.500 676.959 C 476.926 679.438, 486.885 691.767, 498 711 C 509.054 730.128, 517.434 737.677, 524.606 734.966 C 530.778 732.634, 534.650 727.391, 538.392 716.299 L 540.502 710.042 547.726 728.271 C 557.847 753.815, 567.549 781.594, 569.922 791.827 C 572.525 803.052, 579.686 841.957, 582.102 858 C 583.137 864.875, 584.456 878.825, 585.033 889 C 585.610 899.175, 586.273 908.175, 586.506 909 C 587.630 912.977, 585.926 874.063, 584.535 864 C 582.750 851.078, 576.158 814.542, 572.414 796.813 C 569.767 784.280, 556.819 746.288, 547.472 723.626 C 544.325 715.996, 541.752 708.796, 541.754 707.626 C 541.756 706.457, 543.085 702.575, 544.706 699 L 547.655 692.500 549.393 695.827 C 551.044 698.987, 555.855 710.574, 572.511 751.500 C 581.216 772.890, 589.774 797.952, 593.994 814.410 C 600.598 840.169, 610.976 896.235, 610.993 906.250 C 610.997 908.313, 611.492 910, 612.094 910 C 612.829 910, 612.976 908.278, 612.541 904.750 C 610.629 889.231, 608.480 875.695, 605.443 860.055 C 603.581 850.460, 602.195 842.472, 602.363 842.303 C 602.532 842.135, 606.855 852.460, 611.970 865.248 C 619.701 884.575, 630.113 908.240, 631.624 909.917 C 631.831 910.146, 632.223 910.110, 632.496 909.837 C 632.770 909.564, 630.913 905.101, 628.371 899.920 C 619.344 881.521, 599.216 829.575, 595.935 816.209 C 591.869 799.649, 583.558 774.975, 574.476 752.500 C 560.032 716.756, 553.144 700.207, 550.740 695.478 C 548.369 690.813, 548.341 690.509, 549.838 685.826 L 551.384 680.992 546.678 671.697 C 543.773 665.961, 541.547 659.932, 540.863 655.951 C 539.547 648.283, 537.953 646.176, 532.850 645.360 C 530.753 645.025, 528.524 644.132, 527.896 643.375 C 526.956 642.242, 527.573 642, 531.410 642 C 533.970 642, 537.642 641.341, 539.570 640.535 C 543.018 639.095, 543.093 639.115, 544.116 641.785 C 544.688 643.278, 550.035 657.550, 555.999 673.500 C 573.502 720.316, 598.925 785.682, 609.478 811 C 623.063 843.593, 634.591 872.451, 642.034 892.500 C 645.505 901.850, 648.493 909.687, 648.673 909.917 C 652.621 914.942, 636.514 872.199, 614.976 820.500 C 603.355 792.606, 595.748 773.584, 587.046 750.663 C 583.253 740.673, 577.588 725.975, 574.457 718 C 571.326 710.025, 563.234 688.744, 556.475 670.709 L 544.186 637.919 546.501 633.709 C 550.440 626.546, 551.287 619.748, 549.458 609.981 C 546.206 592.616, 541.675 587.067, 530.068 586.237 L 523.341 585.756 521.762 581.628 C 515.183 564.430, 513.299 559, 513.908 559 C 514.294 559, 517.510 561.073, 521.055 563.606 C 528.022 568.586, 534.494 571.943, 537.194 571.978 C 538.126 571.990, 540.151 570.914, 541.694 569.587 C 544.372 567.284, 544.523 566.681, 545.016 556.337 L 545.532 545.500 546.798 551.065 C 549.849 564.468, 559.384 577.768, 568.866 581.847 C 577.915 585.740, 593.401 586.402, 597.418 583.068 C 599.769 581.117, 599.923 577.070, 598.443 556 C 596.696 531.136, 596.538 529.926, 592.836 513.121 C 588.370 492.853, 588.900 481.997, 594.500 479 C 597.740 477.266, 606.484 478.224, 609.763 480.672 C 615.589 485.022, 616.504 487.369, 616.452 497.825 C 616.408 506.652, 615.996 508.695, 611.752 521.133 C 609.193 528.631, 606.568 537.814, 605.920 541.540 C 602.457 561.422, 611.145 579.666, 626.338 584.416 C 633.977 586.804, 652.463 586.129, 649.890 583.556 C 649.645 583.312, 647.433 583.577, 644.973 584.146 C 634.859 586.481, 621.739 582.774, 615.438 575.800 C 608.887 568.549, 607.542 564.155, 607.540 550 C 607.538 537.709, 607.617 537.270, 612.251 523.757 C 620.866 498.641, 620.261 486.228, 610.085 479.300 C 603.128 474.564, 594.962 475.413, 590.590 481.327 C 587.375 485.675, 587.790 497.904, 591.748 515.500 C 594.886 529.447, 596.284 541.697, 597.584 566.616 C 598.249 579.371, 598.205 579.795, 595.995 582.005 C 593.880 584.120, 593.122 584.239, 585.111 583.719 C 573.658 582.976, 566.628 580.259, 560.624 574.256 C 551.717 565.349, 547.563 553.521, 545.959 532.500 C 543.405 499.046, 542.820 493.688, 540.926 486.458 C 538.504 477.210, 536.166 472.416, 532.342 468.852 C 524.565 461.605, 516.794 459.904, 513.073 464.635 C 510.495 467.911, 510.425 472.546, 512.892 476.591 C 513.929 478.291, 518.823 484.256, 523.768 489.847 C 528.712 495.437, 534.349 503.046, 536.294 506.756 C 542.329 518.268, 543.356 523.932, 543.432 546.141 C 543.495 564.411, 543.361 565.935, 541.506 567.990 C 538.299 571.540, 533.168 570.210, 523.062 563.208 C 518.353 559.945, 511.317 555.673, 507.427 553.714 C 503.536 551.755, 498.249 548.546, 495.677 546.583 C 493.105 544.620, 491 543.457, 491 544 C 491 545.372, 498.387 550.623, 505.148 554.057 C 510.580 556.816, 510.902 557.206, 513.545 564.213 C 515.057 568.221, 517.532 574.650, 519.045 578.500 L 521.796 585.500 519.648 586.150 C 518.467 586.508, 514.943 586.845, 511.817 586.900 C 506.750 586.989, 506.061 586.757, 505.455 584.750 C 505.081 583.512, 501.626 574.400, 497.776 564.500 C 493.926 554.600, 490.675 545.375, 490.551 544 C 490.428 542.625, 489.771 540.150, 489.092 538.500 C 487.535 534.713, 487.506 526.555, 489.030 520.872 C 489.675 518.467, 492.614 510.607, 495.562 503.406 C 502.813 485.690, 503.371 482.819, 502.014 470.202 C 500.537 456.481, 497.691 447.491, 493.497 443.297 C 489.741 439.541, 488.814 439.329, 486.458 441.684 C 485.039 443.104, 484.880 444.587, 485.448 451.100 C 486.279 460.617, 485.114 465.322, 480.496 471.111 C 475.805 476.990, 475.208 479.515, 473.532 500.579 C 472.129 518.203, 470.563 525.684, 467.208 530.805 C 464.856 534.394, 459.961 533.292, 445.091 525.824 C 428.837 517.660, 428.683 517.408, 429.333 500 C 430.042 481.046, 435.956 461.681, 448.617 436.863 C 451.946 430.338, 452.379 428.646, 452.420 422 C 452.456 416.128, 451.987 413.598, 450.261 410.345 C 445.612 401.585, 439.500 399.903, 429.929 404.750 C 420.441 409.556, 415.376 420.007, 412.437 440.836 C 409.735 459.991, 406.142 469.964, 401.629 470.833 C 399.263 471.289, 392.799 464.495, 386.520 454.954 C 383.822 450.854, 378.159 443.900, 373.936 439.500 C 369.712 435.100, 365.684 430.396, 364.984 429.046 C 360.893 421.158, 359.885 408.051, 362.865 401.491 C 365.755 395.131, 370.644 391.614, 381.655 387.975 C 397.934 382.595, 407.034 376.986, 408.416 371.481 C 409.277 368.049, 406.672 363.403, 402.733 361.344 C 394.355 356.964, 381.083 360.421, 370.895 369.637 C 362.602 377.139, 359.923 378.737, 351.935 380.951 C 347.868 382.078, 344.419 383, 344.270 383 C 343.398 383, 344.241 368.688, 345.359 364.500 C 349.149 350.314, 356.830 342.201, 371 337.416 C 377.459 335.235, 395.059 334.930, 429.699 336.399 C 448.399 337.192, 451.183 337.110, 453.327 335.705 C 455.624 334.201, 455.882 334.245, 458.021 336.522 C 460.010 338.640, 460.218 339.654, 459.742 344.905 C 458.379 359.945, 446.275 371.397, 421.773 380.832 C 417.563 382.453, 412.854 384.671, 411.309 385.760 C 409.764 386.849, 405.056 389.324, 400.847 391.260 C 396.637 393.196, 391.076 396.732, 388.489 399.117 C 383.754 403.482, 377.438 411.771, 378.237 412.571 C 378.474 412.807, 380.380 410.513, 382.474 407.473 C 387.282 400.493, 391.745 396.962, 401.640 392.312 C 405.963 390.281, 410.893 387.579, 412.595 386.309 C 414.298 385.038, 418.123 383.162, 421.095 382.139 C 446.044 373.553, 459.505 361.036, 460.773 345.243 C 461.100 341.163, 461.673 339.090, 462.390 339.389 C 463 339.643, 467.887 341.330, 473.250 343.138 L 483 346.425 483 355.003 C 483 366.666, 481.372 372.133, 471.596 393.307 C 460.089 418.230, 457.155 426.970, 455.945 439.926 C 454.837 451.797, 453.201 466.602, 452.374 472.250 C 452.026 474.622, 452.224 476, 452.912 476 C 453.545 476, 454 473.987, 454 471.184 C 454 468.535, 454.433 463.922, 454.963 460.934 C 455.493 457.945, 456.364 449.875, 456.900 443 C 458.037 428.414, 460.246 420.959, 469.198 401.500 C 483.050 371.388, 483.292 370.672, 483.796 358.250 C 484.046 352.063, 484.413 347, 484.610 347 C 484.807 347, 489.064 348.766, 494.070 350.924 C 503.976 355.195, 507.302 357.191, 519.704 366.311 C 527.459 372.014, 527.967 372.620, 528.996 377.415 C 530.907 386.329, 529.536 392.485, 519.126 421.712 C 513.087 438.667, 510.982 448.431, 512.970 450.273 C 514.040 451.264, 514.176 451.164, 513.680 449.755 C 513.343 448.794, 513.545 445.421, 514.130 442.257 C 515.108 436.963, 516.668 432.174, 526.754 403.500 C 529.722 395.059, 530.289 392.073, 530.385 384.347 C 530.458 378.537, 530.865 375.416, 531.500 375.800 C 532.050 376.133, 538.800 381.827, 546.500 388.454 C 554.200 395.081, 562.525 402.166, 565 404.198 L 569.500 407.894 569.462 422.197 C 569.425 435.923, 569.275 436.953, 565.746 447.723 C 560.674 463.200, 559.598 470.307, 560.335 483.471 C 561.430 503.040, 565.443 520.819, 572.491 537.316 C 574.971 543.123, 577 548.802, 577 549.936 C 577 551.071, 577.450 552, 578 552 C 579.615 552, 579.273 550.822, 573.593 536.825 C 567.339 521.412, 563.348 504.858, 561.782 487.833 C 560.428 473.100, 561.464 464.842, 566.656 449 C 570.283 437.935, 570.427 436.965, 570.463 423.347 C 570.487 414.178, 570.852 409.409, 571.500 409.806 C 573.981 411.326, 601.096 435.908, 606.342 441.392 C 609.555 444.751, 616.500 452.900, 621.776 459.500 C 627.051 466.100, 633.040 473.553, 635.086 476.063 L 638.804 480.626 637.518 485.563 C 636.810 488.278, 635.119 493.232, 633.758 496.572 C 629.829 506.218, 628.618 512.720, 628.557 524.500 C 628.511 533.312, 628.985 537.177, 630.940 543.930 C 632.282 548.566, 633.547 551.859, 633.751 551.247 C 633.955 550.635, 633.127 547.067, 631.912 543.317 C 630.143 537.860, 629.709 534.206, 629.735 525 C 629.772 512.375, 630.375 509.274, 635.669 494.500 C 637.640 489, 639.398 483.961, 639.575 483.301 C 639.767 482.588, 641.198 483.316, 643.108 485.101 C 644.874 486.751, 647.260 488.576, 648.409 489.157 C 649.559 489.738, 647.768 487.578, 644.429 484.357 C 641.089 481.136, 633.947 472.755, 628.556 465.732 C 623.165 458.710, 615.322 449.198, 611.127 444.595 C 603.629 436.367, 581.937 416.536, 564.776 402.221 C 559.977 398.218, 550.302 389.956, 543.276 383.861 C 515.199 359.506, 501.675 351.185, 476.226 342.608 C 462.470 337.971, 456 334.757, 456 332.561 C 456 331.758, 463.516 334.379, 476.250 339.623 C 502.093 350.264, 506.663 352.594, 516.891 360.342 C 522.064 364.261, 526.282 366.717, 527.891 366.746 C 529.326 366.773, 532.975 367.183, 536 367.658 C 543.048 368.765, 553.859 367.745, 562.059 365.198 C 565.602 364.097, 578.175 359.591, 590 355.183 C 612.683 346.728, 622.889 344.063, 633.208 343.901 C 636.669 343.847, 641.975 343.423, 645 342.960 C 648.906 342.362, 646.878 342.257, 638.004 342.601 C 623.687 343.154, 613.851 344.952, 603.061 348.986 C 557.350 366.074, 554.238 367, 542.524 367 C 531.655 367, 525.107 364.726, 515.500 357.615 C 511.100 354.358, 504.359 350.228, 500.519 348.435 L 493.539 345.177 497.519 344.453 C 502.939 343.468, 507.355 341.126, 522.158 331.390 C 529.119 326.810, 537.669 321.506, 541.158 319.603 C 549.921 314.822, 576.328 304.454, 583 303.175 C 591.893 301.470, 608.989 300.810, 616 301.900 C 619.575 302.456, 624.300 303.155, 626.500 303.452 C 630.402 303.980, 630.377 303.952, 625.500 302.328 C 619.046 300.178, 590.308 299.926, 582 301.947 C 575.110 303.623, 546.028 315.248, 540 318.736 C 537.525 320.168, 529.081 325.526, 521.235 330.643 C 503.017 342.524, 503.724 342.177, 496.032 343.018 C 489.777 343.702, 489.034 343.537, 478.514 339.116 L 467.527 334.500 472.535 333.887 C 483.827 332.505, 492.035 325.754, 509.148 303.773 C 518.154 292.204, 529.258 282.860, 538.142 279.375 C 541.970 277.873, 545.334 276.269, 545.617 275.811 C 545.900 275.352, 543.740 275.928, 540.816 277.090 C 537.892 278.253, 534.564 279.568, 533.421 280.012 C 528.138 282.066, 515.361 293.882, 508.131 303.399 C 497.606 317.254, 492.897 322.174, 484.998 327.571 C 479.049 331.636, 477.382 332.280, 471.604 332.744 C 466.857 333.125, 463.811 332.818, 460.752 331.649 C 456.584 330.058, 456.499 329.931, 456.452 325.263 C 456.425 322.643, 456.037 313.075, 455.590 304 C 454.819 288.358, 454.891 287.199, 456.973 281.715 C 460.263 273.051, 468.235 264.959, 478.366 260.001 C 488.366 255.107, 495.327 253.289, 509.022 251.998 C 525.181 250.474, 547.962 254.311, 568.210 261.968 C 574.100 264.196, 582.363 266.677, 586.572 267.482 C 595.640 269.217, 600.133 271.594, 601.456 275.356 C 602.632 278.698, 601.337 281.167, 597.905 282.128 C 596.582 282.498, 588.975 282.848, 581 282.906 C 554.469 283.099, 539.819 286.628, 530.942 294.962 C 526.626 299.014, 526.002 300.102, 526.015 303.551 C 526.043 310.674, 529.111 312.482, 541 312.382 C 548.365 312.320, 550.681 311.830, 558.340 308.707 C 563.201 306.724, 573.326 301.410, 580.840 296.897 C 618.179 274.469, 626.166 272.060, 641.852 278.494 C 645.345 279.927, 648.719 280.927, 649.348 280.717 C 649.978 280.507, 646.670 278.860, 641.997 277.055 C 626.325 271.005, 618.679 273.017, 587.500 291.393 C 566.201 303.945, 562.624 305.805, 554.580 308.505 C 542.019 312.722, 528.690 311.599, 527.338 306.210 C 525.762 299.930, 534.392 291.812, 546.681 288.017 C 553.527 285.902, 573.094 284.017, 588.500 283.988 C 600.613 283.965, 605.098 281.509, 603.639 275.700 C 602.512 271.206, 597.108 268.086, 586.838 265.997 C 581.702 264.953, 572.644 262.258, 566.708 260.009 C 560.772 257.760, 549.297 254.553, 541.208 252.882 C 528.101 250.176, 525.140 249.896, 514 250.316 C 485.691 251.383, 465.257 261.578, 456.734 278.888 C 453.046 286.377, 452.835 289.704, 454.345 316.500 C 455.174 331.207, 455.147 331.546, 452.964 333.849 C 450.751 336.184, 450.644 336.194, 435.119 335.485 C 410.265 334.350, 412.854 335.549, 403.786 320.977 C 399.515 314.114, 393.826 304.675, 391.142 300 C 388.459 295.325, 383.493 287.225, 380.108 282 C 376.722 276.775, 373.198 270.113, 372.276 267.195 C 370.780 262.458, 370.755 261.445, 372.050 257.745 C 373.235 254.359, 374.411 253.135, 378.485 251.051 L 383.470 248.500 415.194 248.500 C 444.501 248.500, 447.054 248.362, 448.709 246.687 C 450.432 244.943, 450.398 244.786, 447.823 242.548 C 446.350 241.268, 442.975 239.441, 440.323 238.487 C 426.306 233.448, 421.345 230.396, 415.889 223.453 C 412.589 219.254, 409.185 216.089, 406.837 215.039 L 403.075 213.354 405.416 209.909 C 407.890 206.267, 417.153 199.016, 424.140 195.250 C 432.896 190.530, 440.511 193.328, 444.629 202.776 C 446.001 205.924, 447.753 209.940, 448.522 211.701 C 450.306 215.784, 454.232 218.410, 457.374 217.621 C 461.588 216.563, 463.422 210.924, 463.430 199 C 463.439 186.415, 461.739 178.032, 458.365 174.022 C 452.565 167.129, 434.257 161.408, 425.957 163.895 C 423.758 164.554, 421.455 164.781, 420.839 164.401 C 420.038 163.905, 419.953 160.263, 420.542 151.604 C 422.127 128.293, 421.814 122.228, 418.680 115.500 C 407.545 91.598, 399.172 91.514, 396.971 115.280 C 394.472 142.258, 391.810 152.645, 386.278 156.996 C 382.537 159.939, 380.364 159.572, 379.625 155.875 C 377.833 146.916, 379.591 138.589, 386.564 123 C 392.502 109.727, 393.973 104.266, 393.988 95.446 C 394.009 82.870, 389.863 77.310, 367.704 60.204 C 361.333 55.286, 354.243 48.569, 349.205 42.680 C 344.712 37.427, 339.542 31.989, 337.715 30.596 C 333.646 27.493, 327.958 25.094, 326.185 25.735 M 325.337 28.564 C 324.131 31.707, 325.779 42.837, 328.235 48.139 C 329.601 51.088, 333.283 56.607, 336.417 60.403 C 342.150 67.349, 345.453 72.870, 347.225 78.472 C 347.751 80.137, 348.322 94.616, 348.493 110.646 C 348.783 137.767, 348.673 140.008, 346.917 142.896 C 344.713 146.520, 341.227 147.013, 338.570 144.078 C 335.405 140.581, 335.509 134.978, 338.990 121.385 C 343.103 105.326, 343.014 95.112, 338.696 87.745 C 333.076 78.154, 323.417 76.333, 312.887 82.880 C 306.653 86.755, 304.183 86.591, 301.516 82.127 C 295.636 72.288, 284.577 64, 277.327 64 C 272.919 64, 270.625 67.504, 270.773 74.007 C 270.919 80.427, 273.325 84.855, 283.081 96.659 C 292.502 108.058, 293.874 110.493, 297.358 122 C 302.597 139.300, 303.123 150.400, 298.845 153.396 C 296.369 155.130, 294.460 154.594, 290.682 151.103 C 284.881 145.745, 280.972 137.147, 275.909 118.615 C 270.728 99.648, 261.605 83.414, 247.608 68.250 C 244.098 64.448, 240.878 64.107, 232.229 66.622 C 224.914 68.748, 215.426 67.973, 207.500 64.600 C 196.432 59.891, 186.805 62.036, 188.485 68.837 C 189.468 72.817, 192.937 75.945, 203.685 82.539 C 216.058 90.131, 225.296 98.767, 235.201 112 C 246.752 127.433, 251.959 139.141, 251.988 149.750 L 252 154 248.065 154 C 245.901 154, 242.919 153.539, 241.438 152.976 C 236.481 151.092, 227.674 140.666, 219.500 127.006 C 214.209 118.164, 208.352 110.102, 202.203 103.198 C 197.090 97.456, 190.291 89.323, 187.094 85.124 C 181.111 77.264, 177.639 74.538, 174.407 75.160 C 170.053 75.999, 168.791 84.938, 171.537 95.482 C 173.549 103.207, 175.498 106.205, 185.695 117.268 C 198.028 130.648, 213 154.002, 213 159.858 C 213 162.041, 210.455 162.966, 204.398 162.986 C 196.167 163.014, 189.230 155.285, 184.459 140.770 C 182.964 136.221, 178.936 125.300, 175.507 116.500 C 172.079 107.700, 168.086 96.900, 166.634 92.500 C 161.600 77.248, 158.907 74.924, 148.362 76.731 C 140.922 78.005, 127.809 83.876, 123.750 87.750 C 121.567 89.833, 121 91.278, 121 94.760 C 121 98.888, 121.430 99.567, 128.322 106.323 C 132.350 110.270, 138.812 116.451, 142.683 120.058 C 150.693 127.521, 157.805 136.748, 162.292 145.500 C 164.644 150.086, 165.384 152.874, 165.434 157.330 C 165.495 162.688, 165.236 163.396, 162.234 166.080 C 158.530 169.392, 156.230 169.688, 151.836 167.415 C 144.228 163.481, 136.984 155.011, 121.978 132.500 C 110.419 115.159, 106.385 110.135, 103.427 109.392 C 101.891 109.007, 97.839 110.303, 91.309 113.268 C 85.914 115.718, 79.340 118.530, 76.701 119.516 C 70.819 121.714, 67.636 125.382, 68.507 128.957 C 70.347 136.510, 78.156 142.980, 97 152.563 C 105.528 156.901, 110.115 159.985, 114.750 164.499 C 121.423 170.998, 122.575 174.282, 119.321 177.536 C 116.834 180.023, 112.151 179.008, 99.500 173.240 C 85.530 166.871, 74.918 163.540, 60.192 160.901 C 47.110 158.558, 41.357 158.841, 38.836 161.954 C 37.910 163.098, 36.182 166.950, 34.996 170.513 C 33.111 176.178, 31.974 177.761, 25.942 183.122 C 20.863 187.635, 18.880 190.121, 18.426 192.542 C 17.523 197.356, 20.320 205.726, 24.937 212.026 C 27.144 215.037, 30.198 219.733, 31.725 222.463 C 39.321 236.048, 47.244 238.511, 65 232.808 C 68.575 231.660, 74.075 229.433, 77.221 227.860 C 84.006 224.469, 84 224.469, 84 226.911 C 84 229.455, 89.191 233.708, 93.795 234.935 C 100.417 236.700, 107.568 234.043, 118 225.944 C 134.161 213.396, 145.426 207.468, 160.639 203.506 C 184.578 197.270, 216.603 199.650, 248.146 210.008 C 254.845 212.207, 260.523 213.810, 260.764 213.569 C 261.394 212.939, 254.960 199.841, 247.982 187.550 C 241.413 175.978, 235.433 167.249, 224.657 153.500 C 220.777 148.550, 213.563 139.325, 208.626 133 C 203.689 126.675, 197.835 119.588, 195.617 117.250 C 193.399 114.912, 192.092 113, 192.714 113 C 194.215 113, 199.250 119.042, 220.694 146.580 C 239.763 171.066, 248.600 184.684, 257.687 203.581 L 263.293 215.240 268.782 217.667 C 278.686 222.047, 298.106 229.227, 298.630 228.703 C 299.245 228.089, 298.045 224.502, 290.201 203.500 C 286.915 194.700, 282.874 182.971, 281.221 177.436 C 279.568 171.901, 276.792 163.801, 275.051 159.436 C 271.436 150.372, 256.575 121.450, 250.934 112.501 C 248.854 109.200, 246.890 105.150, 246.571 103.500 C 246.004 100.577, 246.030 100.589, 247.591 103.978 C 248.471 105.891, 251.166 110.709, 253.580 114.685 C 264.150 132.097, 275.837 157.002, 281.083 173.294 C 283.954 182.207, 288.981 196.700, 292.256 205.500 C 295.530 214.300, 298.830 223.525, 299.588 226 C 300.919 230.342, 301.240 230.613, 308.734 233.717 C 313.005 235.487, 317.260 237.212, 318.189 237.551 C 321.311 238.690, 321.902 231.758, 322.202 190.500 C 322.513 147.723, 322.136 142.935, 316.852 122.500 C 313.987 111.420, 313.646 108.355, 316.073 115.500 C 318.514 122.687, 322 139.013, 322 143.258 L 322 146.296 324.290 142.898 C 327.285 138.453, 329.994 138.488, 332.248 143 C 335.021 148.549, 333.868 160.346, 330.425 161.667 C 328.699 162.330, 326.100 160.367, 324.952 157.535 C 324.482 156.377, 324.070 166.492, 323.994 181 C 323.853 208.254, 322.718 234.441, 321.559 237.164 C 321.019 238.436, 321.991 239.473, 325.676 241.555 C 328.329 243.054, 332.194 245.354, 334.265 246.665 L 338.031 249.049 339.103 246.274 C 343.793 234.132, 354.916 202.185, 357.999 192 C 365.268 167.992, 366.409 153.464, 364.833 105 C 364.327 89.434, 364.398 86.666, 365.128 93.500 C 365.656 98.450, 366.181 116, 366.293 132.500 C 366.492 161.650, 366.423 162.840, 363.848 174.508 C 361.010 187.370, 355.745 204.012, 345.669 231.968 L 339.373 249.437 344.136 253.202 C 346.755 255.272, 349.323 257.086, 349.842 257.233 C 351.897 257.814, 368.542 230.817, 378.039 211.500 C 388.450 190.323, 392.865 178.676, 395.923 164.314 C 396.955 159.466, 397.842 156.850, 397.893 158.500 C 398.319 172.239, 379.183 217.379, 362.414 242.192 C 350.455 259.888, 350.820 257.908, 358.061 265.794 C 368.621 277.295, 386.555 306.499, 396.107 327.750 L 398.916 334 404.540 334 L 410.163 334 407.888 330.250 C 406.636 328.188, 402.407 321.325, 398.491 315 C 394.574 308.675, 389.846 300.800, 387.983 297.500 C 386.121 294.200, 382.205 287.819, 379.281 283.319 C 372.512 272.904, 370.050 267.446, 370.022 262.799 C 369.962 252.646, 376.668 238.922, 388.744 224.487 C 392.179 220.381, 398.767 211.730, 403.386 205.261 C 408.004 198.793, 413.069 192.335, 414.642 190.911 C 419.072 186.898, 424 183.750, 424 184.932 C 424 185.519, 423.586 186, 423.081 186 C 420.895 186, 410.726 196.720, 405.051 205.005 C 401.659 209.957, 395.834 217.719, 392.106 222.254 C 383.759 232.408, 377.675 241.273, 375.085 247.060 C 374.003 249.475, 373.220 251.554, 373.345 251.679 C 373.470 251.804, 375.985 250.712, 378.934 249.252 C 384.967 246.267, 388.709 246.081, 425.500 246.947 C 445.863 247.426, 450.602 246.745, 447.624 243.767 C 446.742 242.885, 441.628 240.472, 436.260 238.406 C 423.433 233.469, 420.101 231.274, 414.861 224.312 C 412.073 220.608, 408.961 217.775, 406.280 216.500 C 403.814 215.328, 402.057 213.796, 402.036 212.798 C 401.953 208.900, 418.797 195.214, 427.270 192.295 C 435.219 189.556, 444.201 195.083, 447.399 204.680 C 450.866 215.085, 455.197 218.852, 458.999 214.770 C 461.581 211.999, 462.384 205.738, 461.716 193.600 C 461.004 180.681, 459.474 176.386, 454.117 172.277 C 446.551 166.473, 429.582 163.012, 423.818 166.098 C 422.235 166.945, 421.433 166.862, 420.307 165.735 C 417.882 163.310, 417.634 156.586, 419.477 143.168 C 421.549 128.077, 420.834 122.663, 415.385 112.210 C 405.600 93.437, 401.064 94.354, 398.510 115.623 C 394.624 147.974, 393.797 151.203, 387.880 157.120 C 383.857 161.143, 382.540 161.628, 380 160.020 C 378.815 159.269, 378.506 156.806, 378.529 148.285 C 378.558 137.752, 378.658 137.278, 382.847 128 C 391.404 109.048, 392.292 106.163, 392.393 97 C 392.546 83.067, 389.636 79.011, 366.576 61.012 C 360.328 56.134, 352.837 49.115, 348.968 44.512 C 341.134 35.190, 337.825 31.998, 333 29.106 C 328.836 26.609, 326.160 26.420, 325.337 28.564 M 172 103.156 C 172 103.408, 173.850 108.313, 176.111 114.057 C 178.372 119.800, 181.696 128.775, 183.499 134 C 189.878 152.493, 193.870 158.812, 200.571 161.023 C 204.269 162.244, 212 161.475, 212 159.887 C 212 157.939, 204.933 145.031, 199.054 136.241 C 195.693 131.216, 189.653 123.594, 185.633 119.302 C 181.614 115.011, 176.902 109.520, 175.162 107.100 C 173.423 104.680, 172 102.905, 172 103.156 M 154.010 113.028 C 154.027 115.684, 158.587 124.312, 165.863 135.460 C 174.595 148.838, 177.900 157.147, 183.878 180.750 C 186.420 190.787, 188.801 199, 189.169 199 C 190.284 199, 180.407 162.062, 177.003 153.500 C 175.254 149.101, 170.870 141.001, 167.261 135.500 C 163.651 130, 159.191 122.363, 157.349 118.528 C 155.507 114.694, 154.004 112.219, 154.010 113.028 M 326.531 141.354 C 324.075 143.150, 323.709 149.712, 325.743 155.500 C 327.826 161.427, 329.979 161.966, 331.743 157 C 332.890 153.770, 332.698 145.982, 331.387 142.565 C 330.595 140.502, 328.434 139.962, 326.531 141.354 M 117 143.487 C 117 143.754, 118.565 144.627, 120.479 145.427 C 125.404 147.485, 133.443 155.322, 137.530 162.050 C 141.567 168.694, 143.262 173.085, 146.585 185.500 C 148.365 192.151, 148.841 193.213, 148.409 189.569 C 146.998 177.689, 140.196 161.882, 132.971 153.693 C 128.242 148.333, 117 141.149, 117 143.487 M 217.001 156.499 C 215.403 158.424, 216.936 162.390, 220.997 166.835 C 224.230 170.376, 225.211 170.656, 226.966 168.541 C 228.631 166.535, 227.407 161.638, 224.326 157.976 C 221.581 154.714, 218.927 154.178, 217.001 156.499 M 217.517 156.973 C 216.771 158.180, 220.964 165.895, 223.519 168.015 C 224.899 169.161, 225.292 169.148, 226.053 167.936 C 227.090 166.283, 226.506 163.766, 224.094 159.500 C 222.358 156.427, 218.718 155.029, 217.517 156.973 M 301.035 170.934 C 298.053 176.507, 302.963 196, 307.349 196 C 310.245 196, 313 191.482, 313 186.733 C 313 176.171, 304.347 164.746, 301.035 170.934 M 301.431 172.420 C 300.156 177.498, 304.617 195, 307.185 195 C 307.633 195, 308.951 194.049, 310.114 192.886 C 313.168 189.832, 312.373 181.754, 308.382 175.301 C 304.932 169.720, 302.374 168.660, 301.431 172.420 M 156.040 173.452 C 154.302 175.546, 155.094 177.985, 158.286 180.366 C 161.515 182.774, 164.277 181.803, 164.830 178.065 C 165.513 173.457, 158.911 169.993, 156.040 173.452 M 261.368 175.662 C 259.270 180.683, 260.333 185.256, 264.731 190.124 C 268.999 194.848, 273.369 197.335, 275.958 196.513 C 280.106 195.197, 279.406 191.682, 272.807 180.711 C 266.985 171.032, 263.876 169.660, 261.368 175.662 M 157.053 174.436 C 155.129 176.754, 157.452 180, 161.035 180 C 163.297 180, 164 179.543, 164 178.071 C 164 175.866, 161.486 173, 159.551 173 C 158.833 173, 157.709 173.646, 157.053 174.436 M 263.200 174.200 C 262.540 174.860, 262 177.710, 262 180.533 C 262 184.909, 262.480 186.206, 265.250 189.321 C 270.777 195.535, 277 197.409, 277 192.860 C 277 189.221, 267.357 173, 265.194 173 C 264.757 173, 263.860 173.540, 263.200 174.200 M 196.750 180.080 C 192.741 182.415, 196.123 191.061, 201.580 192.431 C 205.014 193.293, 207.004 191.524, 206.985 187.628 C 206.967 183.995, 206.399 182.999, 203.027 180.692 C 200.196 178.754, 199.194 178.657, 196.750 180.080 M 405.625 182.284 C 402.587 185.322, 401.273 189.673, 402.901 191.301 C 404.529 192.929, 407.037 191.177, 409.493 186.694 C 411.349 183.307, 411.372 182.943, 409.827 181.399 C 408.283 179.854, 407.994 179.915, 405.625 182.284 M 129.150 182.320 C 128.316 183.325, 128.404 184.149, 129.498 185.582 C 130.767 187.244, 131.096 187.300, 131.966 186 C 133.299 184.007, 133.252 183.454, 131.633 182.110 C 130.600 181.253, 129.992 181.305, 129.150 182.320 M 196.667 181.667 C 194.071 184.263, 198.361 190.700, 203.037 191.224 C 205.210 191.468, 205.536 191.070, 205.805 187.845 C 206.044 184.969, 205.624 183.850, 203.832 182.595 C 201.493 180.956, 197.849 180.484, 196.667 181.667 M 404.569 185.501 C 401.850 190.551, 403.794 192.221, 407.402 187.934 C 408.876 186.182, 409.914 184.242, 409.709 183.624 C 408.902 181.201, 406.391 182.118, 404.569 185.501 M 366.200 194.882 C 362.794 199.584, 360.099 210.349, 361.695 212.878 C 363.342 215.489, 365.181 214.784, 368.672 210.208 C 372.679 204.954, 374.510 198.771, 373.304 194.566 C 372.025 190.106, 369.581 190.215, 366.200 194.882 M 368.312 194.237 C 367.178 195.482, 365.734 197.500, 365.104 198.723 C 363.504 201.828, 361.934 210.665, 362.651 212.534 C 363.176 213.900, 363.484 213.872, 365.227 212.294 C 368.873 208.995, 372.273 202.032, 372.273 197.866 C 372.273 192.596, 370.928 191.365, 368.312 194.237 M 52 193.999 C 52 195.753, 63.921 197.332, 77.500 197.378 C 99.945 197.452, 179.452 195.830, 180 195.287 C 180.275 195.014, 153.050 194.934, 119.500 195.109 C 75.525 195.339, 57.593 195.109, 55.250 194.284 C 53.462 193.655, 52 193.526, 52 193.999 M 308.077 212.857 C 307.485 213.963, 307 215.595, 307 216.484 C 307 219.113, 309.855 223.852, 312.193 225.103 C 317 227.676, 320.141 218.072, 315.811 214.039 C 314.608 212.918, 313.295 212, 312.893 212 C 312.492 212, 311.486 211.740, 310.658 211.422 C 309.756 211.076, 308.722 211.650, 308.077 212.857 M 309 216.845 C 309 219.300, 309.661 221.288, 310.829 222.345 C 312.984 224.296, 315.994 224.531, 316.014 222.750 C 316.021 222.063, 316.288 220.529, 316.606 219.342 C 317.301 216.751, 313.986 213, 311 213 C 309.347 213, 309 213.667, 309 216.845 M 480.364 277.851 C 470.770 284.801, 466.844 292.621, 463.354 311.735 C 461.971 319.306, 460.191 326.512, 459.397 327.750 C 458.603 328.988, 458.338 330, 458.808 330 C 460.533 330, 462.064 325.193, 464.501 312.131 C 467.785 294.523, 470.542 288.514, 478.809 280.938 C 485.923 274.419, 486.395 273.482, 480.364 277.851 M 483 303.762 C 478.882 305.113, 473 313.533, 473 318.077 C 473 320.472, 473.103 320.461, 481.828 317.142 C 484.758 316.027, 487.796 314.584, 488.578 313.935 C 490.083 312.686, 490.470 308.249, 489.235 306.400 C 488.082 304.673, 484.650 303.221, 483 303.762 M 480.769 306.045 C 478.634 307.319, 474 315.066, 474 317.364 C 474 318.879, 474.281 318.908, 476.750 317.646 C 478.262 316.873, 480.916 315.936, 482.646 315.564 C 487.284 314.566, 489.601 311.616, 488.414 308.220 C 487.374 305.245, 483.811 304.231, 480.769 306.045 M 575 317.554 C 560.104 320.751, 554 325.063, 554 332.390 C 554 335.722, 554.587 337.173, 556.750 339.192 C 561.375 343.509, 565.739 344.294, 581.879 343.717 C 596.709 343.187, 600.583 342.474, 620.515 336.602 C 625.474 335.141, 634.249 333.341, 640.015 332.601 C 650.088 331.309, 650.245 331.253, 644 331.165 C 636.231 331.056, 628.595 332.538, 612.453 337.290 C 577.111 347.695, 549.922 343.673, 556.024 328.942 C 558.584 322.761, 570.733 318.562, 589.664 317.314 C 597.597 316.791, 630.380 318.097, 645.500 319.538 C 648.670 319.840, 649.951 319.689, 649 319.126 C 646.801 317.822, 615.706 315.988, 597.372 316.079 C 587.877 316.127, 578.888 316.720, 575 317.554 M 525.994 339.934 C 520.913 341.480, 516.994 344.110, 515.517 346.967 C 512.002 353.765, 514.932 357.333, 524.027 357.333 C 528.895 357.333, 531.285 356.688, 536.677 353.917 C 547.589 348.309, 549.654 342.818, 541.872 340.105 C 538.318 338.866, 529.806 338.775, 525.994 339.934 M 524.813 341.521 C 517.542 343.852, 512.570 351.750, 516.544 354.656 C 519.733 356.988, 529.514 356.348, 535.355 353.425 C 544.167 349.015, 547.065 344.958, 543.510 342.008 C 541.197 340.089, 530.176 339.802, 524.813 341.521 M 204.500 345.330 C 192.524 349.401, 172.882 359.518, 164 366.191 C 126.113 394.655, 119.087 400.892, 114.383 410.232 C 112.454 414.063, 110.444 418.331, 109.918 419.716 L 108.960 422.235 114.730 421.548 C 117.903 421.170, 130.175 418.362, 142 415.309 L 163.500 409.758 185.500 409.470 C 211.187 409.134, 213.551 409.385, 215.709 412.679 C 217.195 414.947, 217.167 415.300, 215.298 417.807 C 210.519 424.221, 199.756 425.701, 152.500 426.440 C 100.898 427.248, 94.435 428.420, 89.810 437.810 C 87.656 442.184, 87.500 443.715, 87.500 460.500 C 87.500 473.638, 87.859 479.130, 88.830 480.833 C 90.069 483.008, 90.281 483.055, 91.961 481.535 C 92.952 480.638, 94.544 477.113, 95.498 473.702 C 97.647 466.019, 101.061 459.175, 104.151 456.359 C 108.155 452.708, 118.912 447.910, 128.922 445.309 C 142.016 441.907, 164.779 440.824, 166.998 443.498 C 169.282 446.250, 168.673 452.787, 165.876 455.548 C 164.569 456.837, 155.400 461.121, 145.500 465.068 C 124.564 473.414, 111.414 479.812, 108.284 483.176 C 100.499 491.540, 101.183 512.839, 110.021 537.250 C 111.764 542.063, 113.539 546, 113.966 546 C 114.393 546, 115.028 543.843, 115.378 541.207 C 116.181 535.157, 121.854 523.330, 125.626 519.843 C 132.344 513.633, 138.418 512.572, 167.500 512.533 C 194.871 512.495, 197.220 511.962, 204.214 504.197 C 209.372 498.471, 216.847 482.501, 223.464 463.070 C 229.470 445.433, 231.417 441.510, 236.132 437.542 C 247.622 427.874, 252.338 447.398, 245.543 476.500 C 244.259 482, 242.903 488.798, 242.530 491.607 L 241.852 496.714 245.676 497.346 C 253.028 498.561, 259.968 498.057, 263.965 496.018 C 266.102 494.927, 270.247 491.215, 273.175 487.768 C 290.104 467.838, 305.285 455.603, 324 446.809 C 348.655 435.223, 353.320 432.012, 357.405 423.814 C 359.597 419.415, 360 417.264, 360 409.952 C 360 402.604, 359.656 400.786, 357.726 397.922 C 352.427 390.058, 345.132 387.500, 328 387.500 C 316.779 387.500, 314.585 387.806, 306.553 390.492 C 301.633 392.138, 296.668 394.423, 295.519 395.571 C 294.371 396.719, 292.604 398.122, 291.592 398.689 C 289.814 399.684, 289.821 399.905, 291.803 405.202 C 295.041 413.857, 297.015 425.200, 297.211 436.281 C 297.420 448.075, 296.258 459, 294.795 459 C 294.215 459, 294.105 458.256, 294.537 457.250 C 294.950 456.288, 295.503 449.949, 295.767 443.165 C 296.310 429.223, 295.060 419.302, 291.325 407.904 L 288.837 400.307 275.870 405.389 L 262.904 410.472 263.702 414.486 C 264.904 420.530, 264.560 437.006, 263.145 441.170 C 262.459 443.189, 261.247 445.380, 260.452 446.040 C 259.406 446.908, 259.540 446.033, 260.938 442.870 C 262.320 439.744, 262.938 435.796, 263.109 429 C 263.310 421.025, 262.461 411, 261.585 411 C 258.585 411, 230.035 425.109, 218.118 432.481 C 209.319 437.924, 209.262 437.986, 208.741 442.608 C 208.443 445.251, 206.248 451.196, 203.655 456.379 C 199.123 465.441, 188.193 481.526, 187.224 480.558 C 186.946 480.280, 189.342 476.567, 192.548 472.307 C 199.568 462.981, 206.699 449.154, 207.636 443.053 L 208.319 438.607 200.409 444.849 C 196.059 448.283, 187.802 454.559, 182.060 458.796 C 176.318 463.033, 169.613 468.420, 167.161 470.768 C 164.708 473.115, 162.518 474.851, 162.293 474.626 C 161.537 473.870, 187.827 446.376, 193.193 442.311 C 211.280 428.607, 219.381 423.871, 242.492 413.486 C 251.837 409.286, 259.641 405.692, 259.835 405.499 C 260.731 404.602, 253.130 401.758, 243.787 399.495 C 235.658 397.525, 230.896 397.002, 221.083 397.001 C 214.254 397.001, 208.900 396.766, 209.186 396.481 C 209.472 396.195, 215.337 395.947, 222.220 395.930 C 232.485 395.904, 236.586 396.367, 245.031 398.508 C 250.694 399.943, 256.716 401.859, 258.414 402.764 C 260.111 403.670, 261.725 404.342, 262 404.257 C 265.669 403.127, 284.306 396.027, 284.739 395.595 C 287.088 393.246, 267.804 381.688, 248.021 373.588 C 234.128 367.900, 230.635 366.845, 225.771 366.868 C 222.273 366.885, 220 366.468, 220 365.811 C 220 365.088, 222.083 364.911, 226.250 365.281 C 238.493 366.368, 275.402 383.556, 284.038 392.192 C 286.849 395.003, 287.010 395.039, 289.493 393.413 C 291.041 392.399, 291.866 391.097, 291.581 390.118 C 291.323 389.228, 290.643 385.863, 290.069 382.640 C 288.848 375.772, 286.720 372.032, 280.811 366.369 C 264.646 350.876, 248.295 344.205, 224.500 343.394 C 212.753 342.994, 210.825 343.180, 204.500 345.330 M 436.256 346.929 C 431.312 350.511, 429 353.673, 429 356.853 C 429 359.094, 429.293 359.227, 433.260 358.780 C 438.879 358.147, 449.405 353.016, 449.833 350.701 C 450.016 349.711, 449.443 347.799, 448.560 346.451 C 446.287 342.983, 441.444 343.171, 436.256 346.929 M 438.457 346.863 C 434.795 349.096, 430 354.604, 430 356.577 C 430 358.635, 432.562 358.351, 440.685 355.394 C 448.377 352.595, 449.483 351.400, 447.997 347.491 C 446.827 344.414, 442.897 344.155, 438.457 346.863 M 633.500 363.033 C 618.938 363.995, 613 366.447, 613 371.500 C 613 376.615, 622.438 380.998, 640.860 384.439 C 650.695 386.275, 650 386.223, 650 385.129 C 650 384.650, 647.638 383.951, 644.750 383.576 C 636.123 382.457, 624.002 379.153, 619.706 376.751 C 614.290 373.722, 613.086 371.667, 615.296 369.225 C 618.054 366.178, 623.662 364.922, 637.322 364.295 C 644.829 363.951, 649.596 363.359, 648.822 362.869 C 648.095 362.408, 646.825 362.093, 646 362.169 C 645.175 362.245, 639.550 362.634, 633.500 363.033 M 569.181 369.011 C 558.309 371.929, 554 374.627, 554 378.514 C 554 383.252, 562.742 384.263, 575.500 381 C 579.801 379.900, 584.572 379, 586.103 379 C 589.386 379, 592 375.830, 592 371.849 C 592 365.275, 585.918 364.519, 569.181 369.011 M 529.410 369.306 C 544.186 380.446, 575.901 407.935, 596.201 427.194 C 606.544 437.008, 618.412 450.096, 635.266 470.278 C 642.972 479.506, 649.512 486.821, 649.799 486.534 C 650.086 486.247, 649.640 485.222, 648.808 484.256 C 647.976 483.290, 641.095 475.075, 633.518 466 C 625.941 456.925, 616.762 446.401, 613.121 442.612 C 606.715 435.949, 606.530 435.273, 612.181 439.183 C 618.341 443.445, 639.705 449.234, 648 448.890 C 650.581 448.782, 648.317 448.253, 633.091 445.407 C 618.119 442.607, 608.030 436.749, 592.079 421.590 C 586.811 416.584, 577.663 408.248, 571.750 403.067 C 565.837 397.886, 561 393.521, 561 393.368 C 561 393.214, 562.913 393.798, 565.250 394.665 C 570.460 396.598, 593.389 397.544, 603.500 396.243 C 609.219 395.508, 607.024 395.357, 591.500 395.421 C 564.658 395.532, 565.093 395.695, 540.307 376.250 C 533.823 371.163, 528.063 367.025, 527.508 367.056 C 526.954 367.086, 527.810 368.099, 529.410 369.306 M 570.500 369.916 C 565 371.407, 559.518 373.161, 558.318 373.813 C 556.006 375.068, 554.476 378.343, 555.459 379.933 C 556.810 382.120, 564.884 382.194, 573.795 380.102 C 578.719 378.946, 583.904 378, 585.317 378 C 590.128 378, 593.071 370.179, 589.066 368.035 C 586.132 366.465, 581.493 366.935, 570.500 369.916 M 455.500 371.569 C 451.136 373.835, 447.210 377.777, 443.287 383.833 C 439.701 389.368, 439.528 390.858, 442.664 389.180 C 443.674 388.639, 446.750 387.901, 449.500 387.538 C 459.827 386.176, 468 381.143, 468 376.146 C 468 370.649, 461.710 368.346, 455.500 371.569 M 455.307 372.792 C 452.119 374.497, 447.031 379.967, 443.629 385.344 C 441.868 388.129, 441.872 388.175, 443.818 387.558 C 444.912 387.211, 448.283 386.524, 451.311 386.031 C 462.158 384.265, 468.150 379.155, 466.002 373.504 C 465.247 371.520, 464.369 371.009, 461.775 371.042 C 459.974 371.065, 457.063 371.852, 455.307 372.792 M 207.203 377.131 C 203.514 378.195, 202.194 380.324, 203.930 382.415 C 205.283 384.045, 215.950 386.693, 224.500 387.521 C 227.800 387.840, 233.538 388.601, 237.251 389.211 C 253.750 391.923, 252.586 381.471, 235.952 377.550 C 228.840 375.874, 212.395 375.634, 207.203 377.131 M 209.157 377.929 C 204.734 379.062, 203.007 380.764, 205.008 382.019 C 207.055 383.302, 218.636 385.605, 229.648 386.918 C 234.680 387.518, 240.080 388.260, 241.648 388.567 C 243.394 388.908, 245.276 388.550, 246.500 387.643 C 248.483 386.174, 248.479 386.139, 246.059 383.563 C 244.716 382.133, 241.341 380.262, 238.559 379.403 C 232.722 377.603, 214.080 376.668, 209.157 377.929 M 499.748 384.427 C 497.684 385.163, 494.367 387.008, 492.376 388.527 C 488.920 391.163, 488.782 391.498, 489.344 395.894 C 490.810 407.369, 493.163 411.400, 498.397 411.400 C 503.137 411.400, 504.906 409.490, 507.797 401.250 C 511.574 390.483, 511.688 387.687, 508.456 385.144 C 505.307 382.667, 504.796 382.625, 499.748 384.427 M 496.999 386.940 C 495.073 387.959, 492.631 389.750, 491.572 390.921 C 489.697 392.992, 489.693 393.247, 491.393 400.460 C 492.354 404.536, 493.752 408.379, 494.500 409 C 495.248 409.621, 497.578 409.988, 499.676 409.815 C 503.476 409.501, 503.504 409.467, 506.358 401.500 C 510.345 390.370, 510.676 387.967, 508.446 386.337 C 505.917 384.487, 501.163 384.738, 496.999 386.940 M 289.256 394.482 C 287.472 395.753, 282.522 398.026, 278.256 399.534 C 266.535 403.677, 227.283 421.503, 217.388 427.176 C 204.726 434.437, 187.291 447.807, 180.707 455.307 C 171.242 466.088, 172.481 465.431, 194.498 447.996 C 218.937 428.642, 235.169 419.881, 276 404.003 C 290.410 398.399, 297.216 394.386, 294.851 392.887 C 293.088 391.770, 293.047 391.782, 289.256 394.482 M 620 403.181 C 613.285 407.753, 615.843 416.773, 625.611 422.968 C 632.510 427.344, 648.891 435.442, 649.536 434.797 C 649.851 434.482, 646.372 432.391, 641.805 430.149 C 624.397 421.608, 619.134 417.421, 617.482 410.800 C 616.961 408.712, 617.360 407.549, 619.243 405.666 C 622.622 402.287, 629.634 401.462, 638.517 403.399 C 642.358 404.236, 646.625 405.167, 648 405.469 C 649.375 405.771, 648.475 405.046, 646 403.859 C 642.778 402.313, 638.944 401.572, 632.500 401.249 C 624.261 400.836, 623.204 400.999, 620 403.181 M 434.669 404.189 C 431.150 405.471, 431.260 406.015, 438.466 423 C 441.383 429.875, 444.118 436.625, 444.543 438 C 445.261 440.323, 445.516 440.076, 448.155 434.500 C 453.140 423.963, 451.480 410.669, 444.491 405.171 C 441.504 402.822, 439.086 402.580, 434.669 404.189 M 426.348 408.361 C 420 413.702, 416.264 423.948, 413.522 443.533 C 410.935 462.015, 406.633 472, 401.256 472 C 397.977 472, 392.208 466.117, 385.520 455.954 C 382.822 451.854, 377.072 444.839, 372.743 440.365 C 367.072 434.506, 364.219 430.627, 362.540 426.497 C 360.674 421.906, 360.082 421.165, 359.570 422.780 C 358.368 426.567, 353.244 432.650, 348.748 435.628 L 344.258 438.602 354.879 447.233 C 368.512 458.311, 394.331 482.033, 413.683 501.258 C 428.308 515.788, 428.833 516.199, 427.957 512.421 C 425.163 500.372, 430.156 474.273, 439.231 453.500 C 441.393 448.550, 443.397 443.736, 443.684 442.801 C 444.147 441.297, 431.807 408.740, 430 406.694 C 429.608 406.250, 427.964 407, 426.348 408.361 M 543.952 418.250 C 540.705 421.688, 538.038 425.332, 538.025 426.349 C 537.985 429.345, 540.980 434.757, 543.644 436.502 C 546.543 438.402, 550.962 438.139, 552.088 436 C 562.189 416.805, 562.371 412, 552.993 412 C 550.439 412, 548.754 413.165, 543.952 418.250 M 544.744 419.001 C 541.585 422.302, 539.002 425.789, 539.004 426.751 C 539.014 431.505, 545.829 438.047, 549.360 436.692 C 551.041 436.047, 559 419.703, 559 416.897 C 559 415.892, 558.130 414.605, 557.066 414.035 C 553.057 411.890, 550.604 412.878, 544.744 419.001 M 277.789 415.951 C 276.182 417.216, 274.230 421, 272.246 426.701 C 268.160 438.440, 267.834 440.225, 269.109 443.881 C 270.471 447.790, 273.603 448.024, 277.405 444.501 C 281.237 440.949, 282.695 436.738, 283.506 426.877 C 284.542 414.281, 283.192 411.701, 277.789 415.951 M 279.366 416.046 C 276.549 417.107, 270.893 431.482, 270.243 439.236 C 269.690 445.828, 271.221 447.395, 275.487 444.601 C 279.526 441.954, 281.284 437.259, 282.077 427 C 282.897 416.392, 282.518 414.860, 279.366 416.046 M 244.978 420.817 C 243.067 422.364, 242.907 422.958, 243.902 424.817 C 246.705 430.055, 252.761 431.183, 255.056 426.895 C 256.499 424.199, 255.461 421.531, 252.434 420.152 C 248.974 418.575, 247.594 418.698, 244.978 420.817 M 246.692 420.712 C 243.987 421.396, 244.871 426.142, 247.991 427.689 C 249.986 428.679, 250.870 428.666, 252.436 427.627 C 254.988 425.932, 255.307 424.775, 253.763 422.811 C 252.302 420.949, 249.289 420.055, 246.692 420.712 M 183.750 430.080 C 181.568 431.351, 181.456 435.577, 183.582 436.393 C 184.452 436.727, 187.141 437, 189.559 437 C 193.140 437, 194.256 436.538, 195.587 434.508 C 198.195 430.527, 196.851 428.995, 190.781 429.030 C 187.877 429.047, 184.713 429.519, 183.750 430.080 M 184.692 430.701 C 183.508 431.007, 182.990 431.917, 183.192 433.335 C 183.450 435.148, 184.257 435.549, 188.158 435.801 C 192.067 436.054, 193.072 435.735, 194.416 433.817 C 195.897 431.702, 195.885 431.480, 194.258 430.836 C 192.289 430.057, 187.440 429.989, 184.692 430.701 M 340.723 440.456 C 339.098 441.649, 339.525 442.313, 345.723 448.233 C 349.450 451.794, 356.504 458.240, 361.397 462.559 C 366.291 466.877, 372.591 473.167, 375.397 476.537 C 378.204 479.906, 384.894 487.504, 390.265 493.422 C 395.636 499.340, 404.918 510.329, 410.892 517.841 C 416.867 525.354, 425.072 535.631, 429.127 540.681 C 433.182 545.731, 440.775 555.223, 446 561.775 L 455.500 573.688 461.937 574.324 C 465.477 574.674, 468.551 574.783, 468.767 574.566 C 469.777 573.556, 445.495 539.130, 433.454 524.500 C 418.614 506.471, 366.256 456.943, 346 441.774 C 343.002 439.529, 342.245 439.340, 340.723 440.456 M 487 452.540 C 487 463.408, 485.533 468.653, 481.573 471.939 C 480.708 472.657, 480 474.137, 480 475.228 C 480 477.180, 490.647 504.741, 492.003 506.299 C 493.402 507.907, 500.323 487.763, 500.783 480.739 C 501.921 463.399, 495.315 442, 488.826 442 C 487.174 442, 487 443.002, 487 452.540 M 513.994 465.734 C 510.154 470.616, 512.548 475.484, 526.271 490.696 C 533.810 499.054, 538.645 506.904, 542.018 516.262 C 543.901 521.485, 543.905 521.489, 543.490 517.500 C 543.262 515.300, 542.804 509.900, 542.473 505.500 C 540.792 483.147, 535.051 470.108, 524.682 465.088 C 518.947 462.312, 516.574 462.455, 513.994 465.734 M 477.078 480.641 C 476.485 482.763, 475.719 489.450, 475.375 495.500 L 474.749 506.500 478.744 516 C 480.942 521.225, 483.403 527.250, 484.214 529.389 L 485.689 533.277 486.303 528.087 C 486.641 525.232, 487.913 519.807, 489.129 516.031 L 491.341 509.165 489.237 503.832 C 488.080 500.900, 485.113 493.613, 482.644 487.641 L 478.154 476.781 477.078 480.641 M 473.648 515.336 C 472.734 523.118, 469.329 531.738, 466.416 533.647 C 464.204 535.096, 463.561 535.087, 458.809 533.532 C 452.852 531.584, 442.282 526.658, 436.633 523.196 C 432.163 520.458, 431.933 520.043, 442.102 533.053 C 445.733 537.699, 453.903 549.150, 460.257 558.500 L 471.811 575.500 478.427 578.368 C 482.065 579.946, 486.430 582.533, 488.127 584.118 C 490.871 586.682, 491.929 587, 497.714 587 L 504.217 587 503.559 584.378 C 502.362 579.609, 478.687 518.289, 476.041 513.106 L 474.309 509.713 473.648 515.336 M 449.381 576 C 446.566 576.412, 441.291 577.738, 437.659 578.947 C 427.614 582.290, 425.083 586.126, 423.089 601.031 C 421.720 611.262, 418.821 617.435, 412.198 624.224 C 409.127 627.372, 406.906 630.239, 407.262 630.595 C 408.450 631.783, 416.797 626.065, 418.941 622.595 C 420.105 620.713, 421.769 616.771, 422.640 613.836 C 424.802 606.549, 428.251 600.033, 431.657 596.803 C 436.903 591.827, 441.170 590.766, 459.500 589.879 C 468.850 589.427, 479.425 588.458, 483 587.726 L 489.500 586.395 484.605 583.230 C 481.913 581.489, 477.638 579.383, 475.105 578.550 C 470.877 577.159, 457.855 574.897, 455.500 575.145 C 454.950 575.202, 452.197 575.587, 449.381 576 M 369.114 597.582 C 366.361 601.082, 365.694 603.555, 366.436 607.511 C 367.134 611.231, 373.213 617.303, 375.741 616.805 C 381.410 615.688, 383.698 602.500, 379.076 597.581 C 375.878 594.176, 371.792 594.177, 369.114 597.582 M 370.134 598.087 C 366.979 601.473, 366.535 606.512, 369.036 610.558 C 373.127 617.178, 376.862 617.302, 379.422 610.903 C 381.381 606.007, 381.406 603.685, 379.537 600.072 C 377.197 595.546, 373.272 594.718, 370.134 598.087 M 440.319 615.006 C 437.656 616.079, 430.212 625.306, 429.401 628.539 C 429.077 629.830, 429.106 631.362, 429.465 631.943 C 431.413 635.096, 444.776 630.643, 448.829 625.490 C 454.393 618.416, 448.839 611.573, 440.319 615.006 M 440.754 616.295 C 437.805 617.589, 430 627.269, 430 629.632 C 430 632.025, 432.685 632.285, 438.503 630.455 C 444.151 628.679, 450 623.563, 450 620.399 C 450 615.521, 446.281 613.870, 440.754 616.295 M 345.065 628.422 C 342.958 630.960, 344.437 637.055, 347.921 640.196 C 351.260 643.207, 357.483 644.812, 359.913 643.290 C 363.748 640.887, 361.416 633.657, 355.660 630.099 C 350.829 627.113, 346.694 626.459, 345.065 628.422 M 346.118 628.906 C 344.061 630.209, 345.600 636.725, 348.628 639.531 C 351.717 642.394, 358.853 643.841, 360.108 641.859 C 360.582 641.111, 360.976 639.747, 360.985 638.827 C 361.007 636.337, 356.053 630.920, 352.329 629.364 C 348.523 627.774, 347.970 627.733, 346.118 628.906 M 465.255 630.056 C 454.757 633.287, 459.391 646.202, 472.020 648.911 C 480.270 650.680, 491.202 650.240, 499.771 647.793 C 504.022 646.579, 507.653 645.489, 507.840 645.370 C 508.026 645.251, 506.001 642.412, 503.340 639.061 C 499.366 634.058, 497.605 632.684, 493.500 631.383 C 487.514 629.486, 469.809 628.654, 465.255 630.056 M 505.056 639.263 L 509.500 644.888 518.464 644.944 C 526.309 644.993, 527.246 644.818, 525.964 643.547 C 525.159 642.748, 520 640.529, 514.500 638.616 C 509 636.702, 503.625 634.800, 502.556 634.387 C 501.220 633.872, 502.003 635.399, 505.056 639.263 M 317.250 654.522 C 316.012 655.397, 315 656.693, 315 657.402 C 315 659.752, 318.899 662.266, 322.727 662.384 C 326.240 662.492, 326.521 662.288, 326.801 659.415 C 327.283 654.472, 321.506 651.512, 317.250 654.522 M 316.700 656.341 C 316.417 657.078, 316.490 658.175, 316.863 658.778 C 317.807 660.306, 323.068 662.188, 324.672 661.572 C 326.327 660.937, 326.401 657.801, 324.800 656.200 C 323.174 654.574, 317.339 654.675, 316.700 656.341 M 413.235 663.060 C 410.889 663.523, 408.526 664.175, 407.985 664.509 C 405.912 665.790, 407.048 670.248, 410.267 673.467 C 416.543 679.743, 429.326 680.214, 433.946 674.341 C 440.834 665.585, 430.095 659.736, 413.235 663.060 M 414.185 664.152 C 411.182 664.729, 408.624 665.816, 408.304 666.650 C 406.442 671.503, 414.614 676.940, 423.827 676.978 C 428.397 676.997, 429.569 676.585, 432.077 674.077 C 437.619 668.535, 434.851 664.449, 424.980 663.601 C 421.966 663.342, 417.108 663.590, 414.185 664.152 M 289.635 679.073 C 286.472 681.560, 286.328 683.082, 289.025 685.523 C 291.971 688.189, 302.976 688.236, 305.895 685.595 C 310.747 681.204, 306.842 677, 297.912 677 C 293.718 677, 291.593 677.532, 289.635 679.073 M 290.223 679.557 C 287.588 681.402, 287.465 682.322, 289.571 684.429 C 290.696 685.553, 293.103 686, 298.036 686 C 304.099 686, 305.070 685.737, 306.098 683.817 C 307.093 681.958, 306.933 681.364, 305.022 679.817 C 302.160 677.499, 293.380 677.345, 290.223 679.557 M 358.109 694.891 C 352.559 700.441, 357.126 707.752, 369.871 713.721 C 375.312 716.268, 379.121 717.315, 384.416 717.715 C 390.963 718.210, 391.822 718.050, 394.257 715.879 C 398.341 712.237, 398.560 709.253, 395.140 703.872 C 390.600 696.729, 383.464 693.642, 370.372 693.157 C 361.100 692.814, 360.036 692.964, 358.109 694.891 M 358.750 695.706 C 353.061 702.050, 362.234 711.313, 378.495 715.643 C 385.704 717.563, 390.295 717.342, 393.365 714.927 C 397.223 711.893, 396.926 707.442, 392.523 702.298 C 387.815 696.797, 382.591 694.893, 370.500 694.270 C 361.472 693.804, 360.330 693.944, 358.750 695.706 M 313.313 717.652 C 311.883 719.839, 311.524 722.277, 311.613 729.195 C 311.683 734.618, 312.207 738.545, 312.986 739.483 C 315.042 741.960, 319.327 741.312, 322.451 738.051 C 325.140 735.244, 325.252 734.759, 324.765 727.960 C 324.185 719.848, 321.889 715.690, 317.714 715.190 C 315.793 714.959, 314.658 715.594, 313.313 717.652 M 314.688 717.792 C 313.380 719.238, 313 721.589, 313 728.247 C 313 732.971, 313.273 737.548, 313.607 738.418 C 314.534 740.833, 318.786 740.305, 321.675 737.416 C 324.103 734.988, 324.219 734.430, 323.600 728.166 C 322.639 718.429, 318.486 713.595, 314.688 717.792" stroke="none" fill="black" fill-rule="evenodd"/></svg>